<?xml version="1.0" encoding="UTF-8" standalone="yes"?>
<!-- Created with sK1/UniConvertor (http://sk1project.org/) -->
<svg xmlns="http://www.w3.org/2000/svg" xmlns:xlink="http://www.w3.org/1999/xlink"
  width="595.276pt" height="841.89pt" viewBox="0 0 595.276 841.89"
  fill-rule="evenodd">
<g>
<g>
<path style="stroke:#000000; stroke-width:0; fill:none" d="M -499 -52.1102L 521 -52.1102L 521 967.89L -499 967.89L -499 -52.1102"/>
<path style="stroke:#000000; stroke-width:0; fill:none" d="M -499 -52.1102L 521 967.89"/>
<path style="stroke:#000000; stroke-width:0; fill:none" d="M 521 -52.1102L -499 967.89"/>
</g>
<path style="stroke:none; fill:#afac8a" d="M 148 738.89L 142 730.89C 142 730.89 132 737.56 137 744.89C 142 752.22 146 747.89 146 747.89L 151 743.89L 151 741.89L 149 741.89C 149 741.89 146.33 744.22 145 743.89C 143.67 743.56 148 738.89 148 738.89z"/>
<path style="stroke:none; fill:#afac8a" d="M 163 713.89C 163 713.89 159.67 704.22 153 703.89C 146.33 703.56 142 708.89 142 708.89C 142 708.89 138.33 715.22 142 719.89C 145.67 724.56 144.67 728.89 152 728.89L 165 728.89C 165 728.89 168.33 732.56 166 732.89C 163.67 733.22 153.67 736.56 154 737.89C 154.33 739.22 153 745.56 158 743.89C 163 742.22 164 738.89 164 738.89C 164 738.89 168 738.56 170 737.89C 172 737.22 172.33 732.89 172 730.89C 171.67 728.89 168 720.89 165 720.89C 162 720.89 143.33 720.22 149 714.89C 154.67 709.56 157 714.89 157 714.89C 157 714.89 161 719.22 163 713.89z"/>
<path style="stroke:none; fill:#afac8a" d="M 160 704.89L 177 730.89C 177 730.89 179.75 732.39 182 730.89C 184.25 729.39 194 723.89 194 723.89C 194 723.89 195.75 723.64 194 719.89C 192.25 716.14 193 716.89 193 716.89C 193 716.89 190.5 713.89 187 715.89C 183.5 717.89 182 718.89 182 718.89C 182 718.89 180.25 721.89 178 717.89C 175.75 713.89 166 700.89 166 700.89L 163 697.89C 163 697.89 161.5 695.14 161 696.89C 160.5 698.64 159.25 704.39 160 704.89z"/>
<path style="stroke:none; fill:#afac8a" d="M 173 698.89C 173 698.89 169.5 698.64 171 701.89C 172.5 705.14 180 703.89 180 703.89C 180 703.89 183.75 703.39 183 695.89C 182.25 688.39 175 687.89 175 687.89C 175 687.89 170.5 691.39 168 689.89C 165.5 688.39 167.5 684.39 169 684.89C 170.5 685.39 171.75 687.89 174 685.89C 176.25 683.89 172 679.89 172 679.89C 172 679.89 167 674.39 165 676.89C 163 679.39 162 689.14 163 690.89C 164 692.64 166 697.14 171 695.89C 176 694.64 177.5 693.89 178 694.89C 178.5 695.89 178.75 698.39 173 698.89z"/>
<path style="stroke:none; fill:#afac8a" d="M 165 653.89L 166 665.89C 166 665.89 166 667.89 168 667.89L 182 687.89C 182 687.89 187.5 690.14 187 683.89C 187 683.89 186.25 682.14 185 680.89L 172 664.89L 173 660.89C 173 660.89 173.75 658.39 171 655.89C 168.25 653.39 165.75 649.64 165 653.89z"/>
<path style="stroke:none; fill:#afac8a" d="M 190 682.89C 190 682.89 192.5 682.64 195 680.89C 197.5 679.14 195.5 677.14 193 673.89C 190.5 670.64 193.25 668.14 195 666.89C 196.75 665.64 200 671.89 200 671.89C 200 671.89 203.25 674.39 205 669.89C 206.75 665.39 201 660.89 201 660.89L 191 651.89C 191 651.89 183.5 643.64 180 640.89C 176.5 638.14 172 639.89 172 639.89L 172 642.89C 168.5 643.89 170 648.89 170 648.89C 170 648.89 180.5 666.89 184 674.89C 187.5 682.89 190 682.89 190 682.89zM 181 652.89L 187 658.89L 187 660.89L 185 660.89L 181 652.89z"/>
<path style="stroke:none; fill:#afac8a" d="M 201 640.89L 190 640.89C 190 640.89 187.75 642.14 190 644.89C 192.25 647.64 192 648.89 192 648.89L 196 648.89L 198 648.89L 209 665.89C 209 665.89 211.25 668.14 213 666.89C 214.75 665.64 214.5 662.64 214 661.89L 204 646.89C 204 646.89 206.25 642.39 201 640.89z"/>
<path style="stroke:none; fill:#afac8a" d="M 218 637.89L 210 640.89C 210 640.89 206.25 642.64 209 645.89C 211.75 649.14 211.75 648.39 212 649.89C 212.25 651.39 214 658.14 217 658.89C 220 659.64 221 660.89 221 660.89C 221 660.89 224.75 659.89 227 656.89C 229.25 653.89 230 654.89 230 654.89C 230 654.89 230 651.39 228 650.89C 226 650.39 223 652.89 223 652.89C 223 652.89 218.5 655.64 219 651.89L 224 647.89C 224 647.89 226 646.89 224 644.89C 222 642.89 221.25 643.39 220 643.89C 218.75 644.39 216 646.89 216 646.89C 216 646.89 214.75 647.14 214 644.89C 213.25 642.64 215 642.89 216 642.89C 217 642.89 220 641.89 220 641.89C 220 641.89 222 638.39 218 637.89z"/>
<path style="stroke:none; fill:#afac8a" d="M 234 648.89L 236 651.89C 236 651.89 237 653.89 234 653.89C 231 653.89 228.75 650.89 228 648.89C 227.25 646.89 228.25 645.14 226 643.89C 223.75 642.64 223 639.89 223 639.89C 223 639.89 220.75 637.14 225 636.89C 229.25 636.64 230 638.89 230 638.89L 234 642.89C 234 642.89 236.75 645.64 235 641.89C 233.25 638.14 232 637.89 232 637.89C 232 637.89 229.75 634.39 232 633.89C 234.25 633.39 237 635.89 237 635.89C 237 635.89 239.5 639.89 239 641.89L 242 644.89C 242 644.89 243 649.89 241 650.89C 239 651.89 234 648.89 234 648.89z"/>
<path style="stroke:none; fill:#afac8a" d="M 199 721.89C 201 727.64 207 720.89 208 718.89C 209 716.89 208.25 715.64 207 713.89C 205.75 712.14 207 711.89 207 711.89C 207 711.89 207.25 710.89 209 708.89C 210.75 706.89 211 708.89 211 708.89L 213 711.89C 216.25 712.7 217 711.89 219 708.89C 221 705.89 218 702.89 218 702.89L 213 699.89L 205 693.89C 205 693.89 198.75 689.14 194 686.89C 189.25 684.64 189 687.64 186 689.89C 183 692.14 186.25 694.14 189 699.89C 191.75 705.64 199 721.89 199 721.89zM 197 697.89C 202.83 701.22 201.37 703.86 201.01 704.65C 201.09 704.8 201.09 704.89 201 704.89C 200.92 704.89 200.94 704.81 201.01 704.65C 200.69 703.99 199.02 702.11 198 700.89C 196.75 699.39 197 697.89 197 697.89z"/>
<path style="stroke:none; fill:#afac8a" d="M 214 694.89C 214 694.89 211.25 695.14 211 691.89C 210.75 688.64 209.5 687.64 209 687.89C 208.5 688.14 203 681.89 203 681.89C 203 681.89 199.75 679.64 203 675.89C 206.25 672.14 208 674.89 208 674.89L 217 678.89C 217 678.89 219 678.89 220 680.89C 221 682.89 223 680.89 223 680.89L 216 671.89C 216 671.89 211.75 670.64 214 665.89C 216.25 661.14 220 665.89 220 665.89L 223 669.89C 223 669.89 225.25 671.64 225 676.89L 230 681.89L 232 683.89C 232 683.89 238.5 686.64 236 689.89C 233.5 693.14 230 691.89 230 691.89L 218 686.89L 223 693.89C 223 693.89 228.25 696.39 226 699.89C 223.75 703.39 223.75 705.89 219 701.89L 214 694.89z"/>
<path style="stroke:none; fill:#afac8a" d="M 229 676.89L 236 683.89C 236 683.89 239.25 687.14 242 684.89C 244.75 682.64 249 677.89 249 677.89C 249 677.89 252.75 676.64 251 666.89C 251 666.89 249 661.39 245 660.89C 245 660.89 245.75 652.14 242 652.89C 238.25 653.64 233.5 652.89 234 656.89C 234 656.89 228.75 657.39 227 659.89C 225.25 662.39 221.25 663.64 222 664.89C 222.75 666.14 224.25 670.64 226 670.89C 227.75 671.14 228.25 668.64 229 676.89zM 232 665.89C 234.5 657.89 240.5 663.64 242 665.89C 243.5 668.14 244 669.89 242 673.89C 240 677.89 239 674.89 239 674.89L 232 665.89z"/>
<path style="stroke:none; fill:#afac8a" d="M 269 627.89C 269 627.89 266 629.39 265 632.89C 265 632.89 262.75 631.89 261 635.89C 259.25 639.89 253.75 653.14 255 658.89C 255 658.89 257.75 664.14 265 660.89C 265 660.89 276.25 658.14 279 650.89C 280.5 644.39 276.25 643.64 274 643.89C 274 643.89 279.25 636.39 276 632.89C 274.25 629.39 271.5 627.39 269 627.89zM 263 652.89C 263 652.89 267.25 651.39 269 651.89C 270.75 652.39 269.25 655.89 266 656.89C 262.75 657.89 263 652.89 263 652.89zM 262 647.89C 262 647.89 262 640.14 265 638.89C 268 637.64 266.75 641.89 266 642.89C 265.25 643.89 262 647.89 262 647.89z"/>
<path style="stroke:none; fill:#afac8a" d="M 268 612.89L 277 627.89L 286 650.89C 286 650.89 286.5 653.14 289 651.89C 291.5 650.64 293.5 650.14 292 646.89C 290.5 643.64 287 636.89 287 636.89L 294 646.89C 294 646.89 294 650.39 297 648.89C 300 647.39 302.25 646.89 299 642.89C 295.75 638.89 289 629.89 289 629.89L 289 624.89C 289 624.89 288.5 618.39 286 613.89C 283.5 609.39 280.25 603.14 276 605.89L 276 607.89C 276 607.89 273.5 602.89 268 612.89zM 278 616.89C 278 616.89 279.25 610.14 282 617.89C 284.75 625.64 281 623.89 281 623.89C 280.5 621.64 278 616.89 278 616.89z"/>
<path style="stroke:none; fill:#afac8a" d="M 292 619.89C 293.5 629.39 302 639.89 302 639.89C 302 639.89 308.5 647.14 312 643.89C 315.5 640.64 313 630.89 313 630.89C 306.75 607.89 296 592.89 296 592.89C 287.5 591.39 283 593.89 283 593.89C 279.75 595.64 284 602.89 284 602.89C 284.5 607.39 292 619.89 292 619.89zM 291 602.89C 291 602.89 288.5 598.39 292 598.89C 292 598.89 295 601.39 297 607.89C 299 614.39 303 621.89 303 621.89L 307 631.89C 307 631.89 309.5 635.14 306 634.89C 306 634.89 301.25 628.14 298 619.89C 294.75 611.64 291 602.89 291 602.89z"/>
<path style="stroke:none; fill:#afac8a" d="M 301 591.89C 316.5 631.39 320 633.89 320 633.89C 322.25 642.14 331 638.89 331 638.89C 336.5 628.89 327 597.89 327 597.89C 313.5 568.39 305.5 568.14 301 570.89C 296.5 573.64 301 591.89 301 591.89zM 307 585.89C 307 585.89 305.75 580.14 310 582.89C 310 582.89 315 591.39 316 592.89C 316 592.89 314.5 596.14 317 598.89C 319.5 601.64 323.75 613.39 324 615.89C 324.25 618.39 324.75 623.14 327 628.89C 327 628.89 328.25 632.39 325 630.89C 325 630.89 311.25 592.89 307 585.89z"/>
<path style="stroke:none; fill:#afac8a" d="M 340 609.89L 332 609.89L 337 629.89L 340 651.89C 340 651.89 341 654.39 343 652.89C 345 651.39 346 649.89 346 649.89L 352 645.89C 352 645.89 353 645.14 351 640.89C 349 636.64 346 629.89 346 629.89L 353 634.89C 353 634.89 355.75 638.89 358 635.89C 358 635.89 361.25 631.89 360 625.89C 360 625.89 351.75 623.64 350 619.89L 351 603.89C 351 603.89 350.5 602.64 349 603.89C 347.5 605.14 344 605.14 344 611.89C 344 618.64 343 620.89 343 620.89C 343 620.89 339.25 615.39 340 609.89z"/>
<path style="stroke:none; fill:#afac8a" d="M 272 659.89L 264 663.89C 264 663.89 261.75 665.14 264 665.89C 266.25 666.64 278.5 670.39 279 678.89C 279.5 687.39 276 690.89 276 690.89C 276 690.89 273.5 694.39 279 693.89C 284.5 693.39 294.5 693.39 302 690.89C 302 690.89 302.25 682.14 300 680.89C 300 680.89 295.75 680.14 292 684.89L 290 683.89C 290 683.89 288.25 663.14 272 659.89z"/>
<path style="stroke:none; fill:#afac8a" d="M 296 651.89L 290 653.89C 290 653.89 288.25 655.39 291 657.89C 293.75 660.39 304 674.89 304 674.89C 304 674.89 303.5 679.64 307 686.89C 307 686.89 306 690.39 309 689.89C 312 689.39 316 688.89 316 688.89C 316 688.89 319.5 690.64 316 683.89L 311 673.89L 310 648.89C 310 648.89 309.75 647.89 308 647.89C 306.25 647.89 302.75 648.64 303 650.89C 303.25 653.14 304 662.89 304 662.89L 296 651.89z"/>
<path style="stroke:none; fill:#afac8a" d="M 318 644.89L 315 645.89C 315 645.89 308 645.39 315 657.89C 322 670.39 325 682.89 325 682.89C 325 682.89 324 685.64 327 685.89C 330 686.14 334 685.89 334 685.89C 334 685.89 336.5 685.14 335 682.89C 333.5 680.64 331.5 677.89 327 664.89L 339 683.89C 339 683.89 337.5 686.14 343 685.89C 348.5 685.64 350 684.89 349 681.89C 348 678.89 346 674.89 346 674.89L 333 643.89C 333 643.89 332.25 639.89 329 640.89C 325.75 641.89 322.5 642.39 326 646.89C 329.5 651.39 334 665.89 334 665.89L 323 647.89C 323 647.89 322 642.89 318 644.89z"/>
<path style="stroke:none; fill:#afac8a" d="M 268 593.89L 271 597.89C 271 597.89 272 599.64 274 597.89C 276 596.14 278 594.89 278 594.89C 278 594.89 278 592.64 276 591.89C 274 591.14 273 589.89 273 589.89C 273 589.89 280.5 591.14 282 592.89L 287 590.89L 280 583.89L 289 587.89C 289 587.89 290.5 589.89 292 589.89C 293.5 589.89 295.5 587.14 293 585.89C 290.5 584.64 274 575.89 274 575.89C 274 575.89 272.75 572.89 270 575.89L 270 580.89C 270 580.89 269.5 581.89 271 582.89C 272.5 583.89 276 585.89 276 585.89L 270 585.89C 270 585.89 268.5 585.14 268 588.89C 267.5 592.64 267.5 592.39 268 593.89z"/>
<path style="stroke:none; fill:#afac8a" d="M 272 565.89L 271 570.89C 271 570.89 271.75 573.39 277 574.89C 282.25 576.39 291 579.89 291 579.89C 291 579.89 294.5 583.89 295 580.89C 295.5 577.89 297.25 576.14 293 574.89C 292.5 573.39 293 571.89 293 571.89C 293 571.89 296.25 573.89 296 570.89C 295.75 567.89 294.75 566.39 291 565.89C 287.25 565.39 272 562.89 272 565.89zM 286 569.89C 286 569.89 288.25 572.39 287 572.89C 285.75 573.39 281.5 572.14 279 570.89C 276.5 569.64 286 569.89 286 569.89z"/>
<path style="stroke:none; fill:#afac8a" d="M 275 553.89L 276 550.89C 276 550.89 275.75 549.39 280 550.89C 284.25 552.39 288 554.39 289 553.89C 290 553.39 286.75 550.39 284 549.89C 281.25 549.39 279 548.39 280 545.89C 281 543.39 282.25 543.39 284 544.89C 285.75 546.39 297 551.89 297 551.89C 297 551.89 303.75 554.14 302 557.89C 300.25 561.64 297 559.89 297 559.89C 297 559.89 293 556.89 289 556.89L 283 556.89C 283 556.89 290 558.39 292 559.89C 294 561.39 298.5 562.64 296 564.89C 293.5 567.14 290 564.89 290 564.89C 290 564.89 268.75 556.64 275 553.89z"/>
<path style="stroke:none; fill:#afac8a" d="M 288 532.89L 290 530.89C 290 530.89 291 529.39 293 530.89C 295 532.39 308 540.89 308 540.89C 308 540.89 311 542.39 310 543.89C 309 545.39 307.75 546.89 306 545.89C 304.25 544.89 302 542.89 302 542.89C 302 542.89 299.25 539.89 299 543.89L 304 546.89C 304 546.89 306 547.39 305 549.89C 304 552.39 302.75 552.89 301 551.89C 299.25 550.89 285 541.89 285 541.89C 285 541.89 283 541.39 284 538.89C 285 536.39 286.75 535.89 288 536.89C 289.25 537.89 291 539.89 291 539.89C 291 539.89 294.5 542.14 294 538.89L 290 535.89C 290 535.89 287.25 534.64 288 532.89z"/>
<path style="stroke:none; fill:#afac8a" d="M 307 537.89C 309.25 540.14 311.25 537.39 312 535.89C 312.75 534.39 311 533.89 311 533.89L 310 530.89C 310 530.89 313 531.89 314 531.89C 315 531.89 316.75 530.64 318 528.89C 319.25 527.14 317 526.89 317 526.89L 312 525.89C 312 525.89 299.75 521.39 297 520.89C 294.25 520.39 294 521.89 293 524.89C 292 527.89 293 527.89 293 527.89L 307 537.89zM 299 526.89C 299 526.89 303.75 527.89 306 527.89C 308.25 527.89 306.5 529.64 305 530.89C 303.5 532.14 303 529.89 303 529.89L 299 526.89z"/>
<path style="stroke:none; fill:#afac8a" d="M 302 506.89L 296 516.89C 296 516.89 295.67 518.89 298 518.89C 300.33 518.89 300 519.89 300 519.89C 300 519.89 301.83 520.39 301 516.89L 302 515.89L 317 522.89C 317 522.89 321.33 526.06 319 521.89C 318.67 520.06 315 516.89 315 516.89L 307 512.89C 307 512.89 303.5 512.06 305 509.89C 306.5 507.72 302 506.89 302 506.89z"/>
<path style="stroke:none; fill:#afac8a" d="M 307 497.89L 304 504.89C 304 504.89 303.25 507.89 306 506.89C 307 505.14 308 504.89 308 504.89L 313 506.89C 313 506.89 315.75 509.14 316 504.89C 314.5 502.64 310 499.89 310 499.89C 310 499.89 310.25 495.89 309 495.89C 307.75 495.89 307 497.89 307 497.89z"/>
<path style="stroke:none; fill:#afac8a" d="M 315 495.89C 316.5 498.39 317.75 497.14 318 494.89C 318.25 492.64 317 491.89 317 491.89L 317 489.89L 320 489.89C 322 488.14 322 484.89 322 484.89L 311 484.89C 309 484.89 309.25 485.64 309 487.89C 308.75 490.14 310 490.89 310 490.89L 315 495.89zM 312 487.89L 315 488.89C 315 488.89 316.5 489.64 315 490.89C 313.5 492.14 312 487.89 312 487.89z"/>
<path style="stroke:none; fill:#afac8a" d="M 315 478.89L 317 474.89C 317 474.89 316.17 474.06 319 473.89C 321.83 473.72 323 473.89 323 473.89L 320 471.89C 320 471.89 316.5 472.22 317 469.89C 317.5 467.56 319.33 465.89 322 466.89C 324.67 467.89 328 469.89 328 469.89C 328 469.89 330.5 470.22 329 472.89C 327.5 475.56 327 475.89 327 475.89C 327 475.89 326.83 476.06 325 476.89C 323.17 477.72 321 477.89 321 477.89L 320 478.89L 323 479.89C 323 479.89 325.83 480.06 325 481.89C 324.17 483.72 321 482.89 321 482.89C 321 482.89 312.5 480.39 315 478.89z"/>
<path style="stroke:none; fill:#afac8a" d="M 321 460.89C 320.5 464.14 319.25 466.39 325 465.89C 330.75 465.39 333 469.39 337 470.89C 341 472.39 341.75 469.89 343 465.89C 344.25 461.89 342 457.89 342 457.89C 344.25 458.64 348.75 453.14 348 449.89C 345.75 443.14 334.75 440.14 330 438.89C 325.25 437.64 327 443.89 327 443.89L 321 460.89zM 334 447.89C 341.5 449.64 338.75 452.89 338 452.89C 337.25 452.89 334.25 454.39 333 451.89C 331.75 449.39 334 447.89 334 447.89zM 332 456.89C 332 456.89 338.25 460.64 336 462.89C 333.75 465.14 329 460.89 329 460.89C 329 460.89 330 456.89 332 456.89z"/>
<path style="stroke:none; fill:#afac8a" d="M 343 469.89C 341 472.39 347.75 474.39 350 474.89C 353.27 475.62 353 470.89 353 470.89L 355 465.89C 355 465.89 355.5 467.39 356 467.89C 356.5 468.39 357 474.14 357 476.89C 357 479.64 360 479.89 360 479.89C 360 479.89 360.75 479.39 364 480.89C 367.25 482.39 366 479.89 366 479.89C 366.5 478.64 363 465.89 363 465.89C 367.5 466.89 369 464.89 369 464.89C 374 463.39 369.75 451.14 367 446.89C 364.25 442.64 355.5 446.39 353 446.89C 350.5 447.39 351 450.89 351 450.89L 343 469.89zM 359 452.89C 359 452.89 358.25 452.64 362 452.89C 365.75 453.14 363 457.89 363 457.89C 357.75 459.39 357 456.89 357 456.89C 358.75 456.39 359 452.89 359 452.89z"/>
<path style="stroke:none; fill:#afac8a" d="M 379.33 458.71L 377.24 461.08L 371 478.43L 371.08 482.89L 373.41 484.49L 382.28 488.89L 388.89 488.36L 399 470.81L 398.92 466.35L 391.59 460.95L 385.62 457.89L 382.88 458.01L 379.33 458.71zM 382.8 465.63L 384.71 465.24L 386.18 465.17L 389.38 466.86L 390.63 468.75L 390.67 471.22L 385.25 480.95L 381.7 481.24L 379.62 479.91L 378.37 479.03L 378.33 476.56L 382.75 465.83L 382.8 465.63z"/>
<path style="stroke:none; fill:#afac8a" d="M 332 472.89L 319 504.89C 319 504.89 313.75 509.64 320 520.89C 320 520.89 321.75 524.14 323 519.89C 324.25 515.64 328 503.64 329 501.89C 330 500.14 331 498.89 331 498.89C 331 498.89 328.75 520.89 330 523.89C 330 523.89 336.5 521.64 339 516.89C 341.5 512.14 356 482.89 356 482.89C 356 482.89 356.5 481.14 355 479.89C 353.5 478.64 351 477.89 351 477.89C 351 477.89 348 476.39 347 478.89C 346 481.39 343 489.89 343 489.89L 341 493.89L 340 476.89C 340 476.89 340.25 473.64 339 472.89C 337.75 472.14 332.25 470.39 332 472.89z"/>
<path style="stroke:none; fill:#afac8a" d="M 358 482.89L 358 501.89L 344 515.89C 344 515.89 339.5 519.64 343 520.89C 346.5 522.14 347 522.89 347 522.89C 347 522.89 349.5 523.64 352 520.89C 354.5 518.14 362 510.89 362 510.89L 362 514.89C 362 514.89 357 523.89 365 520.89C 373 517.89 377 515.89 377 515.89C 377 515.89 386 515.39 380 510.89C 374 506.39 374.75 505.64 375 503.89C 375.25 502.14 381 495.89 381 495.89C 381 495.89 384.75 492.14 382 490.89C 379.25 489.64 377 488.89 377 488.89C 377 488.89 373 485.89 372 490.89L 368 496.89L 367 495.89L 366 484.89C 366 484.89 367 483.64 365 482.89C 363 482.14 357.75 479.39 358 482.89z"/>
<path style="stroke:none; fill:#afac8a" d="M 386 525.89C 386 525.89 361 524.89 361 533.89C 361 542.89 370.33 559.22 379 561.89C 379 561.89 384 566.22 384 559.89C 384 553.56 383 552.56 382 551.89C 381 551.22 375.33 549.56 375 539.89C 375 539.89 374.67 532.22 383 532.89C 383 532.89 387 533.89 387 529.89C 387 525.89 386 525.89 386 525.89zM 394 526.89C 394 526.89 390 526.22 390 528.89C 390 531.56 389 533.56 392 534.89C 395 536.22 400.33 540.89 397 546.89C 393.67 552.89 389 552.89 389 552.89C 389 552.89 387 554.56 387 557.89C 387 561.22 384.67 568.22 390 569.89C 395.33 571.56 396 564.89 396 564.89C 396 564.89 398.67 557.89 401 556.89C 403.33 555.89 409 551.56 409 542.89C 409 534.22 397 527.22 394 526.89z"/>
<path style="stroke:none; fill:#afac8a" d="M 416 546.89C 416 546.89 410.33 557.89 405 561.89C 405 561.89 398.67 573.89 409 580.89C 419.33 587.89 421.67 587.22 429 583.89C 436.33 580.56 445 570.89 445 570.89C 445 570.89 445.33 567.56 446 566.89C 446.67 566.22 452 565.89 448 559.89C 444 553.89 437 559.89 437 559.89C 437 559.89 428 577.56 421 575.89C 414 574.22 411 571.89 415 567.89C 419 563.89 427 551.89 427 551.89C 427 551.89 430.67 548.89 427 542.89C 423.33 536.89 418 540.89 418 540.89L 416 546.89z"/>
<path style="stroke:none; fill:#afac8a" d="M 327 532.89C 327 532.89 318.33 538.56 305 557.89C 305 557.89 300.83 564.22 304 565.89C 307.17 567.56 318 574.89 318 574.89C 318 574.89 321.5 578.56 325 576.89C 328.5 575.22 330.83 570.56 328 568.89C 325.17 567.22 319 563.89 319 563.89C 319 563.89 314.83 561.39 318 558.89C 321.17 556.39 323 557.89 323 557.89L 327 560.89C 327 560.89 330.33 564.89 336 560.89C 341.67 556.89 333 551.89 333 551.89L 331 550.89C 331 550.89 326.5 551.22 330 547.89C 330 547.89 330.47 546.38 334 547.89C 338.67 549.89 345.5 553.89 350 548.89C 350 548.89 354 548.22 355 544.89C 356 541.56 355.17 540.22 353 539.89C 350.83 539.56 340.67 540.22 337 533.89L 336 532.89C 336 532.89 331.17 527.89 327 532.89z"/>
<path style="stroke:none; fill:#afac8a" d="M 358 550.89C 358 550.89 353.33 547.56 350 551.89C 346.67 556.22 342.09 563.8 330 575.89C 330 575.89 322.33 580.56 324 586.89C 325.67 593.22 334 605.89 334 605.89C 334 605.89 337.67 610.22 342 605.89C 346.33 601.56 347 601.89 347 601.89C 347 601.89 351.17 596.39 348 594.89C 344.83 593.39 339 588.89 339 588.89C 339 588.89 336.51 586.73 340 582.89C 340 582.89 342.17 579.22 345 581.89C 347.83 584.56 352 587.06 355 584.89C 358 582.72 360.5 576.89 358 574.89C 355.5 572.89 354 571.89 354 571.89C 354 571.89 349.5 570.06 352 567.89C 354.5 565.72 356 566.89 356 566.89L 359 568.89C 359 568.89 366.33 572.06 369 567.89C 371.67 563.72 371.67 559.56 369 557.89C 366.33 556.22 358 550.89 358 550.89z"/>
<path style="stroke:none; fill:#afac8a" d="M 356 596.89C 356 596.89 353 602.64 354 611.89C 354 611.89 353.75 625.14 359 614.89C 364.25 604.64 368 597.14 369 598.89C 370 600.64 366 618.89 366 618.89C 366 618.89 360.5 632.64 366 638.89C 371.5 645.14 380 625.89 380 625.89L 391 610.89L 402 594.89C 402 594.89 409.5 583.14 406 580.89C 402.5 578.64 396.5 578.89 391 589.89L 382 602.89C 382 602.89 381.25 596.89 382 593.89C 382.75 590.89 387 572.14 385 568.89C 383 565.64 377.25 566.89 376 568.89C 374.75 570.89 356 596.89 356 596.89z"/>
<path style="stroke:none; fill:#afac8a" d="M 431 593.89L 421 589.89C 421 589.89 413 583.89 403 595.89C 393 607.89 401 615.89 401 615.89L 405 620.89C 405 620.89 420.75 630.14 416 633.89C 411.25 637.64 407.75 635.64 406 633.89C 404.25 632.14 395.75 617.89 390 622.89C 384.25 627.89 380.75 634.64 384 637.89C 387.25 641.14 399 647.89 399 647.89C 399 647.89 409 653.64 420 646.89C 431 640.14 431 638.89 432 624.89C 432 624.89 432 621.89 423 614.89C 414 607.89 414.25 606.89 416 602.89C 417.75 598.89 421 601.89 421 601.89C 421 601.89 423.5 606.64 425 606.89C 426.5 607.14 428.5 609.14 429 610.89C 429.5 612.64 436.75 610.64 436 604.89C 435.25 599.14 433.25 593.89 431 593.89z"/>
<path style="stroke:none; fill:#afac8a" d="M 197 615.89C 197 615.89 201 615.06 201 613.89C 201 612.72 201.5 610.89 199 609.89C 196.5 608.89 193.33 607.89 192 608.89C 190.67 609.89 189.17 614.22 189 615.89C 188.83 617.56 186.67 618.06 187 620.89C 187.33 623.72 186.17 624.06 186 624.89C 185.83 625.72 184.83 629.39 188 629.89C 191.17 630.39 192.17 628.39 192 624.89C 192 624.89 192.5 621.39 196 622.89C 199.5 624.39 202.67 623.89 204 623.89C 204 623.89 207.33 624.56 204 625.89C 200.67 627.22 192.83 629.56 194 632.89C 195.17 636.22 207 632.89 207 632.89C 207 632.89 213 630.89 212 625.89C 211 620.89 211 618.89 206 617.89C 201 616.89 196.83 616.06 197 615.89z"/>
<path style="stroke:none; fill:#afac8a" d="M 204.55 596.71L 198.83 604.12C 198.83 604.12 196.78 606.99 200.4 609.22C 204.01 611.46 203.78 610.74 204.48 612.09C 205.17 613.45 208.9 619.35 211.99 619.11C 215.08 618.88 216.41 619.75 216.41 619.75C 216.41 619.75 219.69 617.6 220.92 614.02C 222.15 610.43 223.17 611.15 223.17 611.15C 223.17 611.15 222.11 607.8 220.05 607.96C 217.99 608.12 215.89 611.46 215.89 611.46C 215.89 611.46 212.43 615.53 211.76 611.78L 215.32 606.36C 215.32 606.36 216.92 604.77 214.41 603.49C 211.89 602.22 211.32 602.93 210.28 603.81C 209.24 604.69 207.38 607.95 207.38 607.95C 207.38 607.95 206.26 608.59 204.86 606.67C 203.46 604.76 203.21 603.44 204.16 603.13C 205.12 602.81 207.68 600.9 207.68 600.9C 207.68 600.9 208.52 595.91 204.55 596.71z"/>
<path style="stroke:none; fill:#afac8a" d="M 222.67 606.12C 224.14 608.85 227.68 606.64 229.05 604.82C 231.06 602.17 225.59 600.58 225.59 600.58L 221.81 598.85C 221.81 598.85 223.39 598.98 224.05 598.72C 224.71 598.46 230.23 598.23 232.77 599.29C 235.33 600.36 236.81 597.73 236.81 597.73C 236.81 597.73 236.66 596.85 239.43 594.46C 242.22 592.05 239.34 592.23 239.34 592.23C 238.38 591.29 225.05 591.58 225.05 591.58C 227.82 587.82 224.57 585.67 224.57 585.67C 225.24 580.44 214.14 579.72 209.15 580.65C 204.19 581.57 205.23 587.96 204.72 590.4C 204.22 592.84 207.57 593.72 207.57 593.72L 222.67 606.12zM 211.5 590.25C 211.5 590.25 210.97 590.84 212.68 587.52C 214.39 584.17 217.66 588.51 217.66 588.51C 216.95 593.87 214.36 593.6 214.36 593.6C 214.6 591.82 211.5 590.25 211.5 590.25z"/>
<path style="stroke:none; fill:#afac8a" d="M 231 583.89C 231 583.89 227.5 583.64 229 586.89C 230.5 590.14 238 588.89 238 588.89C 238 588.89 242.75 588.39 242 580.89C 241.25 573.39 234 572.89 234 572.89C 234 572.89 225.5 575.39 223 573.89C 220.5 572.39 222.5 568.39 224 568.89C 225.5 569.39 229.75 571.89 232 569.89C 234.25 567.89 230 565.89 230 565.89C 230 565.89 219.26 562.63 217 564.89C 212.33 569.56 213 574.14 214 575.89C 215 577.64 224 582.14 229 580.89C 234 579.64 235.5 578.89 236 579.89C 236.5 580.89 236.75 583.39 231 583.89z"/>
<path style="stroke:none; fill:#afac8a" d="M 222.69 554.83L 219.28 560.25C 219.28 560.25 218.88 562.55 222.63 562.75C 226.39 562.95 231.73 565.76 231.73 565.76C 231.73 565.76 237 569.22 243.78 575.26C 243.78 575.26 245.24 578.65 247.27 576.33C 249.3 574.02 248.11 572.06 248.11 572.06C 248.11 572.06 251.67 573.22 244.9 568.14L 239.56 562.49L 228.73 543.51C 228.73 543.51 227.89 542.89 226.52 544.01C 225.15 545.13 224.89 549.96 226.53 551.57C 228.17 553.17 231.02 558.34 231.02 558.34L 222.69 554.83z"/>
<path style="stroke:none; fill:#afac8a" d="M 238.76 529.86C 238.76 529.86 231.07 553.66 239.72 555.82C 248.36 557.98 266.56 552.93 271.46 545.23C 271.46 545.23 276.97 541.47 270.88 539.95C 264.8 538.43 263.57 539.15 262.66 539.95C 261.75 540.75 258.62 545.8 249.25 543.8C 249.25 543.8 241.79 542.28 244.68 534.43C 244.68 534.43 246.72 530.82 242.87 529.86C 239.03 528.9 238.76 529.86 238.76 529.86z"/>
<path style="stroke:none; fill:#afac8a" d="M 244.37 523.41C 242.71 522.78 241.69 521.7 242.09 521L 243.52 518.46C 243.92 517.76 245.59 517.7 247.25 518.32L 273.63 530C 275.29 530.62 276.31 531.7 275.91 532.4L 274.48 534.94C 274.08 535.64 272.41 537.38 270.75 536.76L 244.37 523.41z"/>
<path style="stroke:none; fill:#afac8a" d="M 253.61 506.88L 276.06 526.01C 277.69 526.97 279.43 527.18 279.96 526.47L 283.68 520.17C 284.21 519.46 284.22 515.32 282.6 514.35L 256.7 501.26C 258.4 498.43 259.69 496.7 259.69 496.7C 259.69 496.7 265.13 493.29 263.32 491.12C 261.5 488.96 258.48 489.89 255.16 492.05L 245.18 502.27C 245.18 502.27 240.95 508.46 244.27 514.34C 244.27 514.34 248.2 519.92 251.53 511.56C 252.18 509.91 252.89 508.34 253.61 506.88z"/>
<path style="stroke:none; fill:#afac8a" d="M 260.49 482.04L 262.65 486.24C 262.65 486.24 261.56 488.32 265 489.56C 268.44 490.8 280.09 493.24 280.09 493.24C 280.09 493.24 278.32 496.84 284.15 502.19C 284.15 502.19 285.86 507.02 287.07 504.19C 289.33 498.89 295.19 497.53 295.19 497.53C 295.19 497.53 299.05 497.78 293.4 492.89L 285.21 488.57L 275.37 465.77C 275.37 465.77 274.78 464.95 273.16 465.63C 271.54 466.31 268.57 468.38 269.6 470.37C 270.64 472.36 274.81 481.11 274.81 481.11C 274.81 481.11 263.09 476.91 264.71 476.57C 260.67 478.56 260.49 482.04 260.49 482.04z"/>
<path style="stroke:none; fill:#afac8a" d="M 312.05 702.66C 312.05 702.66 299.82 708.76 302.34 712.86C 304.87 716.96 313.9 716.05 318.79 715C 318.79 715 322.4 715.66 320.62 712.78C 318.85 709.89 318.09 709.7 317.42 709.66C 316.76 709.62 313.58 716.24 310.72 711.92C 310.72 711.92 308.41 708.52 312.58 706.64C 312.58 706.64 314.77 706.04 313.65 704.22C 312.52 702.4 312.05 702.66 312.05 702.66z"/>
<path style="stroke:none; fill:#afac8a" d="M 330.31 695.13L 328.48 695.28L 319.03 700.05L 317.36 701.93L 317.76 703.51L 319.91 708.73L 322.89 711.02L 333.7 707.88L 335.39 706.07L 334.53 701.02L 333.27 697.36L 332.08 696.29L 330.31 695.13zM 329.04 699.45L 329.99 700.05L 330.63 700.61L 331.3 702.58L 331.08 703.84L 330.14 704.86L 324.16 706.68L 322.55 705.43L 322.18 704.08L 321.98 703.23L 322.91 702.2L 328.94 699.52L 329.04 699.45z"/>
<path style="stroke:none; fill:#afac8a" d="M 341.97 704.6L 343.07 707.4C 343.07 707.4 343.53 709.22 341.14 708.72C 338.76 708.22 337.46 705.37 337.2 703.6C 336.93 701.82 338.02 700.54 336.44 699.14C 334.85 697.73 334.71 695.34 334.71 695.34C 334.71 695.34 333.38 692.69 336.8 693.2C 340.22 693.7 340.45 695.68 340.45 695.68L 342.97 699.65C 342.97 699.65 344.7 702.37 343.93 698.99C 343.16 695.6 342.2 695.19 342.2 695.19C 342.2 695.19 340.99 691.93 342.87 691.89C 344.74 691.85 346.51 694.37 346.51 694.37C 346.51 694.37 347.84 698.09 347.11 699.66L 349 702.63C 349 702.63 348.97 706.92 347.21 707.41C 345.45 707.91 341.97 704.6 341.97 704.6z"/>
<path style="stroke:none; fill:#afac8a" d="M 357.28 687.71L 350.94 688.47C 350.94 688.47 347.91 689.08 349.34 691.99C 350.78 694.89 350.91 694.33 350.83 695.49C 350.75 696.64 350.85 701.95 352.9 703.05C 354.95 704.15 355.46 705.25 355.46 705.25C 355.46 705.25 358.36 705.2 360.51 703.39C 362.67 701.58 363.04 702.46 363.04 702.46C 363.04 702.46 363.65 699.87 362.29 699.14C 360.92 698.4 358.3 699.7 358.3 699.7C 358.3 699.7 354.55 700.92 355.57 698.24L 359.9 696.19C 359.9 696.19 361.53 695.82 360.42 693.97C 359.31 692.13 358.68 692.36 357.69 692.51C 356.69 692.65 354.26 694 354.26 694C 354.26 694 353.3 693.96 353.15 692.16C 353 690.36 354.23 690.86 354.95 691.04C 355.68 691.22 358.03 691.03 358.03 691.03C 358.03 691.03 360.1 688.81 357.28 687.71z"/>
<path style="stroke:none; fill:#afac8a" d="M 364.65 691.07L 360.96 688.95C 360.96 688.95 358.7 687.22 360.09 685.03C 361.48 682.84 363.35 685.2 363.35 685.2L 367.04 687.33L 370.22 682.33C 370.22 682.33 371.51 679.65 373.05 680.54C 374.59 681.42 374.93 684.18 374.93 684.18L 369.14 691.95L 370.45 697.83C 370.45 697.83 370.38 699.92 368.86 700.33C 367.34 700.73 366.72 700.38 365.96 696.95L 364.65 691.07z"/>
<path style="stroke:none; fill:#afac8a" d="M 378 681.89L 381 687.89C 381 687.89 383 689.14 384 686.89L 379 678.89C 379 678.89 376.25 678.64 377 679.89C 377.75 681.14 378 681.89 378 681.89z"/>
<path style="stroke:none; fill:#afac8a" d="M 387.26 683.63C 387.26 683.63 385.57 683.23 385.97 685.24C 386.5 687.89 390.97 685.87 390.97 685.87C 390.97 685.87 393.11 686.78 393 682.47C 392.88 678.27 388.91 677.6 388.91 677.6C 388.91 677.6 386.25 679.29 384.94 678.33C 383.63 677.37 386.96 675.3 387.76 675.65C 388.55 676 389.12 677.43 390.45 676.46C 391.78 675.5 389.65 673.13 389.65 673.13C 389.65 673.13 387.22 671.96 386 673.16C 384.77 674.38 381.65 677.59 382.1 678.61C 382.56 679.63 383.41 682.26 386.29 681.83C 389.15 681.39 390.02 681.05 390.25 681.64C 390.48 682.23 390.51 683.65 387.26 683.63z"/>
<path style="stroke:none; fill:#afac8a" d="M 391.07 671.81L 396.41 680.66C 396.41 680.66 397.28 681.17 397.99 680.66C 398.69 680.15 401.76 678.28 401.76 678.28C 401.76 678.28 402.31 678.19 401.76 676.92C 401.21 675.64 401.44 675.9 401.44 675.9C 401.44 675.9 400.66 674.88 399.56 675.56C 398.46 676.24 397.99 676.58 397.99 676.58C 397.99 676.58 397.44 677.6 396.73 676.24C 396.02 674.88 392.96 670.45 392.96 670.45L 392.02 669.43C 392.02 669.43 391.54 668.49 391.39 669.09C 391.23 669.68 390.84 671.64 391.07 671.81z"/>
<path style="stroke:none; fill:#afac8a" d="M 403.69 676.38C 403.41 679.56 405.33 679.12 406.94 677.19C 408.5 675.33 407.86 673.99 407.86 673.99L 409.01 672.31L 411.56 673.93C 414.2 673.54 415.85 670.9 415.85 670.9L 406.85 665.31C 405.26 664.32 405.03 664.99 403.53 666.54C 401.97 668.14 402.54 669.39 402.54 669.39L 403.69 676.38zM 405.98 668.08L 407.89 670.43C 407.89 670.43 408.72 671.84 406.74 672.06C 404.72 672.29 405.98 668.08 405.98 668.08z"/>
<path style="stroke:none; fill:#afac8a" d="M 414.41 662.75L 418.56 661.02C 418.56 661.02 418.44 659.76 420.73 661.66C 422.93 663.48 423.67 664.38 423.67 664.38L 422.73 660.82C 422.73 660.82 419.87 658.55 421.75 657.07C 423.63 655.6 426.04 655.67 427.3 658.4C 428.5 661.01 429.49 664.68 429.49 664.68C 429.49 664.68 430.89 666.48 428.36 667.46C 425.78 668.46 425.25 668.39 425.25 668.39C 425.25 668.39 425.03 668.41 423.26 667.88C 421.45 667.34 419.75 666.07 419.75 666.07L 418.38 666.17L 420.02 668.84C 420.02 668.84 421.96 670.7 420.27 671.52C 418.57 672.36 416.7 669.82 416.7 669.82C 416.7 669.82 411.34 662.15 414.41 662.75z"/>
<path style="stroke:none; fill:#afac8a" d="M 431.36 660.61L 434.67 664.02C 434.67 664.02 436.21 665.6 437.52 664.5C 438.82 663.41 440.83 661.1 440.83 661.1C 440.83 661.1 442.61 660.49 441.78 655.75C 441.78 655.75 440.83 653.08 438.94 652.83C 438.94 652.83 436.1 651.01 433.73 650.89C 433.73 650.89 431.24 651.13 430.41 652.35C 429.58 653.56 427.69 654.17 428.04 654.78C 428.4 655.39 429.7 658.06 431.36 660.61zM 432.78 655.27C 433.96 651.38 436.81 654.17 437.52 655.27C 438.23 656.36 438.46 657.21 437.52 659.16C 436.57 661.1 436.1 659.64 436.1 659.64L 432.78 655.27z"/>
</g>
</svg>